<?xml version="1.0" encoding="UTF-8" standalone="no"?>
<svg
   xmlns:dc="http://purl.org/dc/elements/1.1/"
   xmlns:cc="http://creativecommons.org/ns#"
   xmlns:rdf="http://www.w3.org/1999/02/22-rdf-syntax-ns#"
   xmlns:svg="http://www.w3.org/2000/svg"
   xmlns="http://www.w3.org/2000/svg"
   xmlns:sodipodi="http://sodipodi.sourceforge.net/DTD/sodipodi-0.dtd"
   xmlns:inkscape="http://www.inkscape.org/namespaces/inkscape"
   width="297mm"
   height="297mm"
   viewBox="0 0 297 297"
   version="1.1"
   id="svg8"
   inkscape:export-filename="C:\Users\Dipanjan\OneDrive\DWIJOTTAM  &amp; DWIJORAJ\Dwijottam Websites\Website 1\Icon\bitmap.png"
   inkscape:export-xdpi="883.20001"
   inkscape:export-ydpi="883.20001"
   inkscape:version="1.0.2-2 (e86c870879, 2021-01-15)"
   sodipodi:docname="workoverflow.svg">
  <defs
     id="defs2" />
  <sodipodi:namedview
     id="base"
     pagecolor="#ffffff"
     bordercolor="#666666"
     borderopacity="1.0"
     inkscape:pageopacity="0.0"
     inkscape:pageshadow="2"
     inkscape:zoom="0.35"
     inkscape:cx="-154.42232"
     inkscape:cy="567.31341"
     inkscape:document-units="mm"
     inkscape:current-layer="layer1"
     inkscape:document-rotation="0"
     showgrid="false"
     inkscape:object-nodes="false"
     inkscape:window-width="1755"
     inkscape:window-height="1020"
     inkscape:window-x="143"
     inkscape:window-y="0"
     inkscape:window-maximized="0" />
  <metadata
     id="metadata5">
    <rdf:RDF>
      <cc:Work
         rdf:about="">
        <dc:format>image/svg+xml</dc:format>
        <dc:type
           rdf:resource="http://purl.org/dc/dcmitype/StillImage" />
        <dc:title></dc:title>
      </cc:Work>
    </rdf:RDF>
  </metadata>
  <g
     inkscape:label="Layer 1"
     inkscape:groupmode="layer"
     id="layer1">
    <g
       id="g1557"
       transform="matrix(1.7220569,0,0,1.7220569,-32.767464,-99.255476)">
      <g
         id="g1528">
        <g
           id="g1500">
          <g
             id="g1473">
            <g
               id="g1447">
              <g
                 id="g1422">
                <g
                   id="g1398">
                  <g
                     id="g1375">
                    <g
                       id="g1353">
                      <g
                         id="g1332">
                        <rect
                           style="opacity:1;fill:#ec7d8d;fill-opacity:1;stroke:none;stroke-width:3.421;stroke-linecap:round;stroke-linejoin:round;stroke-miterlimit:4;stroke-dasharray:none;stroke-opacity:1"
                           id="rect1312"
                           width="61.20472"
                           height="16.30344"
                           x="70.291885"
                           y="132.29842"
                           rx="0.86571509"
                           ry="0.86571205" />
                        <path
                           id="path925"
                           style="color:#000000;font-style:normal;font-variant:normal;font-weight:normal;font-stretch:normal;font-size:medium;line-height:normal;font-family:sans-serif;font-variant-ligatures:normal;font-variant-position:normal;font-variant-caps:normal;font-variant-numeric:normal;font-variant-alternates:normal;font-variant-east-asian:normal;font-feature-settings:normal;font-variation-settings:normal;text-indent:0;text-align:start;text-decoration:none;text-decoration-line:none;text-decoration-style:solid;text-decoration-color:#000000;letter-spacing:normal;word-spacing:normal;text-transform:none;writing-mode:lr-tb;direction:ltr;text-orientation:mixed;dominant-baseline:auto;baseline-shift:baseline;text-anchor:start;white-space:normal;shape-padding:0;shape-margin:0;inline-size:0;clip-rule:nonzero;display:inline;overflow:visible;visibility:visible;isolation:auto;mix-blend-mode:normal;color-interpolation:sRGB;color-interpolation-filters:linearRGB;solid-color:#000000;solid-opacity:1;vector-effect:none;fill:#444b54;fill-opacity:1;fill-rule:nonzero;stroke:none;stroke-width:1311.23;stroke-linecap:round;stroke-linejoin:round;stroke-miterlimit:4;stroke-dasharray:none;stroke-dashoffset:0;stroke-opacity:1;color-rendering:auto;image-rendering:auto;shape-rendering:auto;text-rendering:auto;enable-background:accumulate;stop-color:#000000"
                           d="m 127.40769,129.7775 -53.61398,0.1461 c -1.417879,0.005 -2.793466,0.13825 -4.113639,0.73096 -1.320172,0.5929 -2.455812,1.76081 -2.985695,3.13028 a 2.4768595,2.305548 0 0 0 -0.13813,0.9566 l 3.462136,42.40769 a 2.4768595,2.305548 0 0 0 0.05984,0.35617 c 0,0 0.0812,0.32377 0.216431,0.70734 0.101235,0.28711 0.164947,0.59347 0.445415,1.0281 L 69.025617,159.037 c 0.641683,-1.59516 2.121396,-2.14192 4.301263,-2.20783 l -1.772071,-21.70608 c 0.06955,-0.0945 0.11106,-0.24156 0.276262,-0.31576 0.283364,-0.12727 0.950694,-0.26949 1.976674,-0.27224 l 53.613975,-0.14736 c 1.287,-0.005 2.2269,0.67634 2.69244,1.51105 l -1.45591,18.53791 c -1.7e-4,0.003 -0.16001,1.88978 -0.2083,2.46393 1.62311,0.44508 2.90763,1.51566 3.4673,2.87479 l -1.49727,18.31786 c 0,0 -0.13614,1.55183 -0.16916,1.93 0.0969,-0.0931 0.19727,-0.19574 0.30581,-0.32073 0.64036,-0.73743 1.04616,-1.60416 1.13533,-2.60937 0.65735,-7.41017 1.90503,-22.30716 1.90503,-22.30716 a 2.4768595,2.305548 0 0 0 0,-0.0126 l 1.51574,-19.26266 a 2.4768595,2.305548 0 0 0 -0.14773,-0.96468 c -1.12376,-2.83714 -4.12768,-4.77813 -7.55731,-4.76873 z" />
                        <path
                           style="color:#000000;font-style:normal;font-variant:normal;font-weight:normal;font-stretch:normal;font-size:medium;line-height:normal;font-family:sans-serif;font-variant-ligatures:normal;font-variant-position:normal;font-variant-caps:normal;font-variant-numeric:normal;font-variant-alternates:normal;font-variant-east-asian:normal;font-feature-settings:normal;font-variation-settings:normal;text-indent:0;text-align:start;text-decoration:none;text-decoration-line:none;text-decoration-style:solid;text-decoration-color:#000000;letter-spacing:normal;word-spacing:normal;text-transform:none;writing-mode:lr-tb;direction:ltr;text-orientation:mixed;dominant-baseline:auto;baseline-shift:baseline;text-anchor:start;white-space:normal;shape-padding:0;shape-margin:0;inline-size:0;clip-rule:nonzero;display:inline;overflow:visible;visibility:visible;isolation:auto;mix-blend-mode:normal;color-interpolation:sRGB;color-interpolation-filters:linearRGB;solid-color:#000000;solid-opacity:1;vector-effect:none;fill:#ffdbab;fill-opacity:1;fill-rule:nonzero;stroke:none;stroke-width:5.54538;stroke-linecap:round;stroke-linejoin:round;stroke-miterlimit:4;stroke-dasharray:none;stroke-dashoffset:0;stroke-opacity:1;color-rendering:auto;image-rendering:auto;shape-rendering:auto;text-rendering:auto;enable-background:accumulate;stop-color:#000000"
                           d="m 129.28499,149.56259 -58.190481,0.18229 c -2.65245,0.008 -4.432202,0.68356 -5.181864,2.89822 l 3.757281,52.6126 c 0,0 0.262243,1.17624 0.604735,1.63459 0.314145,0.42036 0.743076,0.90668 1.247811,0.91286 18.815188,0.23026 57.762518,0 57.762518,0 0,0 0.98427,-0.51803 1.31895,-0.95859 0.3566,-0.46941 0.59692,-1.07419 0.6436,-1.67572 0.7121,-9.17597 2.06772,-27.66342 2.06772,-27.66342 l 1.64372,-23.89881 c -0.81696,-2.35765 -3.03935,-4.05226 -5.67399,-4.04402 z"
                           id="path860" />
                        <path
                           style="color:#000000;font-style:normal;font-variant:normal;font-weight:normal;font-stretch:normal;font-size:medium;line-height:normal;font-family:sans-serif;font-variant-ligatures:normal;font-variant-position:normal;font-variant-caps:normal;font-variant-numeric:normal;font-variant-alternates:normal;font-variant-east-asian:normal;font-feature-settings:normal;font-variation-settings:normal;text-indent:0;text-align:start;text-decoration:none;text-decoration-line:none;text-decoration-style:solid;text-decoration-color:#000000;letter-spacing:normal;word-spacing:normal;text-transform:none;writing-mode:lr-tb;direction:ltr;text-orientation:mixed;dominant-baseline:auto;baseline-shift:baseline;text-anchor:start;white-space:normal;shape-padding:0;shape-margin:0;inline-size:0;clip-rule:nonzero;display:inline;overflow:visible;visibility:visible;isolation:auto;mix-blend-mode:normal;color-interpolation:sRGB;color-interpolation-filters:linearRGB;solid-color:#000000;solid-opacity:1;vector-effect:none;fill:#db9683;fill-opacity:1;fill-rule:nonzero;stroke:none;stroke-width:2.78992;stroke-linecap:round;stroke-linejoin:round;stroke-miterlimit:4;stroke-dasharray:none;stroke-dashoffset:0;stroke-opacity:1;color-rendering:auto;image-rendering:auto;shape-rendering:auto;text-rendering:auto;enable-background:accumulate;stop-color:#000000"
                           d="m 133.00909,151.05534 -14.23956,-1.20263 c -0.64906,-0.0551 -1.13181,0.59712 -1.47128,2.85687 l -2.79183,54.19831 c 0,0 -0.0188,1.21598 0.0326,1.69552 0.0472,0.43985 0.11773,0.95023 0.24069,0.96866 4.58379,0.68627 14.12207,1.37987 14.12207,1.37987 0,0 0.27717,-0.50924 0.39006,-0.95431 0.12029,-0.47426 0.2217,-1.09051 0.27553,-1.70801 0.82122,-9.41988 2.45645,-28.40062 2.45645,-28.40062 l 2.0873,-24.53909 c -0.0335,-2.44419 -0.4573,-4.24008 -1.10201,-4.29457 z"
                           id="path866" />
                        <path
                           style="color:#000000;font-style:normal;font-variant:normal;font-weight:normal;font-stretch:normal;font-size:medium;line-height:normal;font-family:sans-serif;font-variant-ligatures:normal;font-variant-position:normal;font-variant-caps:normal;font-variant-numeric:normal;font-variant-alternates:normal;font-variant-east-asian:normal;font-feature-settings:normal;font-variation-settings:normal;text-indent:0;text-align:start;text-decoration:none;text-decoration-line:none;text-decoration-style:solid;text-decoration-color:#000000;letter-spacing:normal;word-spacing:normal;text-transform:none;writing-mode:lr-tb;direction:ltr;text-orientation:mixed;dominant-baseline:auto;baseline-shift:baseline;text-anchor:start;white-space:normal;shape-padding:0;shape-margin:0;inline-size:0;clip-rule:nonzero;display:inline;overflow:visible;visibility:visible;isolation:auto;mix-blend-mode:normal;color-interpolation:sRGB;color-interpolation-filters:linearRGB;solid-color:#000000;solid-opacity:1;vector-effect:none;fill:#ffffff;fill-opacity:1;fill-rule:nonzero;stroke:none;stroke-width:2.13001;stroke-linecap:round;stroke-linejoin:round;stroke-miterlimit:4;stroke-dasharray:none;stroke-dashoffset:0;stroke-opacity:1;color-rendering:auto;image-rendering:auto;shape-rendering:auto;text-rendering:auto;enable-background:accumulate;stop-color:#000000"
                           d="m 67.330742,150.42621 8.300014,-1.20264 c 0.378327,-0.0551 0.659716,0.59712 0.857588,2.85687 l 1.627313,54.19832 c 0,0 0.01099,1.21597 -0.01899,1.69552 -0.0275,0.43985 -0.06863,0.95023 -0.140296,0.96865 -2.671821,0.68627 -8.231533,1.37988 -8.231533,1.37988 0,0 -0.161561,-0.50924 -0.227363,-0.95431 -0.07012,-0.47426 -0.129217,-1.09051 -0.160603,-1.70802 -0.478676,-9.41988 -1.431827,-28.40061 -1.431827,-28.40061 l -1.216649,-24.53909 c 0.01951,-2.44419 0.266549,-4.24008 0.642344,-4.29457 z"
                           id="path912" />
                        <path
                           style="color:#000000;font-style:normal;font-variant:normal;font-weight:normal;font-stretch:normal;font-size:medium;line-height:normal;font-family:sans-serif;font-variant-ligatures:normal;font-variant-position:normal;font-variant-caps:normal;font-variant-numeric:normal;font-variant-alternates:normal;font-variant-east-asian:normal;font-feature-settings:normal;font-variation-settings:normal;text-indent:0;text-align:start;text-decoration:none;text-decoration-line:none;text-decoration-style:solid;text-decoration-color:#000000;letter-spacing:normal;word-spacing:normal;text-transform:none;writing-mode:lr-tb;direction:ltr;text-orientation:mixed;dominant-baseline:auto;baseline-shift:baseline;text-anchor:start;white-space:normal;shape-padding:0;shape-margin:0;inline-size:0;clip-rule:nonzero;display:inline;overflow:visible;visibility:visible;isolation:auto;mix-blend-mode:normal;color-interpolation:sRGB;color-interpolation-filters:linearRGB;solid-color:#000000;solid-opacity:1;vector-effect:none;fill:#444b54;fill-opacity:1;fill-rule:nonzero;stroke:none;stroke-width:1.36177;stroke-linecap:round;stroke-linejoin:round;stroke-miterlimit:4;stroke-dasharray:none;stroke-dashoffset:0;stroke-opacity:1;color-rendering:auto;image-rendering:auto;shape-rendering:auto;text-rendering:auto;enable-background:accumulate;stop-color:#000000"
                           d="m 130.00822,146.55499 -58.860938,0.19022 c -1.556647,0.005 -3.067108,0.1804 -4.516483,0.9539 -1.449374,0.77351 -2.695617,2.29741 -3.277357,4.08412 a 2.719265,3.0080066 0 0 0 -0.151736,1.24763 l 3.800826,55.32868 a 2.719265,3.0080066 0 0 0 0.06575,0.46436 c 0,0 0.08923,0.42271 0.23771,0.92314 0.148471,0.50042 0.22218,1.04558 0.890146,1.97492 0.432399,0.60157 1.226906,2.06805 3.360809,2.09521 19.096121,0.24296 58.474033,0 58.474033,0 a 2.719265,3.0080066 0 0 0 1.19108,-0.3105 c 0,0 0.33963,-0.18626 0.73589,-0.45037 0.39626,-0.26413 0.84627,-0.46063 1.50718,-1.36511 0.70303,-0.96212 1.14881,-2.09287 1.24671,-3.40437 0.72168,-9.66791 2.09134,-29.10358 2.09134,-29.10358 a 2.719265,3.0080066 0 0 0 0,-0.0168 l 1.66397,-25.13135 a 2.719265,3.0080066 0 0 0 -0.16185,-1.25881 c -1.23374,-3.70156 -4.5318,-6.23354 -8.29708,-6.2213 z m 0.0152,6.01431 c 1.41295,-0.005 2.44509,0.88306 2.95619,1.97211 l -1.59821,24.18586 c -0.001,0.0187 -1.37273,19.43754 -2.09134,29.06442 3.2e-4,-0.005 -0.005,0.0126 -0.005,0.011 -0.93181,0.006 -37.807917,0.2216 -56.830292,0 -0.02685,-0.0965 -0.0365,-0.13198 -0.05058,-0.19022 l -3.714845,-54.08388 c 0.07636,-0.12319 0.122092,-0.31441 0.303459,-0.4112 0.311099,-0.16604 1.043345,-0.35167 2.169734,-0.35526 z"
                           id="path862" />
                        <path
                           style="color:#000000;font-style:normal;font-variant:normal;font-weight:normal;font-stretch:normal;font-size:medium;line-height:normal;font-family:sans-serif;font-variant-ligatures:normal;font-variant-position:normal;font-variant-caps:normal;font-variant-numeric:normal;font-variant-alternates:normal;font-variant-east-asian:normal;font-feature-settings:normal;font-variation-settings:normal;text-indent:0;text-align:start;text-decoration:none;text-decoration-line:none;text-decoration-style:solid;text-decoration-color:#000000;letter-spacing:normal;word-spacing:normal;text-transform:none;writing-mode:lr-tb;direction:ltr;text-orientation:mixed;dominant-baseline:auto;baseline-shift:baseline;text-anchor:start;white-space:normal;shape-padding:0;shape-margin:0;inline-size:0;clip-rule:nonzero;display:inline;overflow:visible;visibility:visible;isolation:auto;mix-blend-mode:normal;color-interpolation:sRGB;color-interpolation-filters:linearRGB;solid-color:#000000;solid-opacity:1;vector-effect:none;fill:#db9683;fill-opacity:1;fill-rule:nonzero;stroke:none;stroke-width:5.76443;stroke-linecap:round;stroke-linejoin:round;stroke-miterlimit:4;stroke-dasharray:none;stroke-dashoffset:0;stroke-opacity:1;color-rendering:auto;image-rendering:auto;shape-rendering:auto;text-rendering:auto;enable-background:accumulate;stop-color:#000000"
                           d="m 68.104535,119.57392 h 67.501515 c 1.093,0 1.97291,1.04343 1.97291,2.33952 v 6.85518 c 0,1.29611 -0.87991,2.33954 -1.97291,2.33954 H 68.104535 c -1.092992,0 -1.97291,-1.04343 -1.97291,-2.33954 v -6.85518 c 0,-1.29609 0.879918,-2.33952 1.97291,-2.33952 z"
                           id="path979"
                           sodipodi:nodetypes="sssssssss" />
                        <path
                           style="color:#000000;font-style:normal;font-variant:normal;font-weight:normal;font-stretch:normal;font-size:medium;line-height:normal;font-family:sans-serif;font-variant-ligatures:normal;font-variant-position:normal;font-variant-caps:normal;font-variant-numeric:normal;font-variant-alternates:normal;font-variant-east-asian:normal;font-feature-settings:normal;font-variation-settings:normal;text-indent:0;text-align:start;text-decoration:none;text-decoration-line:none;text-decoration-style:solid;text-decoration-color:#000000;letter-spacing:normal;word-spacing:normal;text-transform:none;writing-mode:lr-tb;direction:ltr;text-orientation:mixed;dominant-baseline:auto;baseline-shift:baseline;text-anchor:start;white-space:normal;shape-padding:0;shape-margin:0;inline-size:0;clip-rule:nonzero;display:inline;overflow:visible;visibility:visible;isolation:auto;mix-blend-mode:normal;color-interpolation:sRGB;color-interpolation-filters:linearRGB;solid-color:#000000;solid-opacity:1;vector-effect:none;fill:#444b54;fill-opacity:1;fill-rule:nonzero;stroke:none;stroke-width:1.44111;stroke-linecap:round;stroke-linejoin:round;stroke-miterlimit:4;stroke-dasharray:none;stroke-dashoffset:0;stroke-opacity:1;color-rendering:auto;image-rendering:auto;shape-rendering:auto;text-rendering:auto;enable-background:accumulate;stop-color:#000000"
                           d="m 67.05591,118.53343 c -2.513516,0 -4.618916,2.49663 -4.618916,5.47724 v 6.85379 c 0,2.98059 2.1054,5.48029 4.618916,5.48029 h 67.50283 c 2.51351,0 4.61891,-2.4997 4.61891,-5.48029 v -6.85379 c 0,-2.98061 -2.1054,-5.47724 -4.61891,-5.47724 z m 0.674613,6.27721 h 66.153597 v 5.2569 H 67.730523 Z"
                           id="path981"
                           sodipodi:nodetypes="sssssssssccccc" />
                        <path
                           style="color:#000000;font-style:normal;font-variant:normal;font-weight:normal;font-stretch:normal;font-size:medium;line-height:normal;font-family:sans-serif;font-variant-ligatures:normal;font-variant-position:normal;font-variant-caps:normal;font-variant-numeric:normal;font-variant-alternates:normal;font-variant-east-asian:normal;font-feature-settings:normal;font-variation-settings:normal;text-indent:0;text-align:start;text-decoration:none;text-decoration-line:none;text-decoration-style:solid;text-decoration-color:#000000;letter-spacing:normal;word-spacing:normal;text-transform:none;writing-mode:lr-tb;direction:ltr;text-orientation:mixed;dominant-baseline:auto;baseline-shift:baseline;text-anchor:start;white-space:normal;shape-padding:0;shape-margin:0;inline-size:0;clip-rule:nonzero;display:inline;overflow:visible;visibility:visible;isolation:auto;mix-blend-mode:normal;color-interpolation:sRGB;color-interpolation-filters:linearRGB;solid-color:#000000;solid-opacity:1;vector-effect:none;fill:#ffdbab;fill-opacity:1;fill-rule:nonzero;stroke:#444b54;stroke-width:5.56559;stroke-linecap:round;stroke-linejoin:round;stroke-miterlimit:4;stroke-dasharray:none;stroke-dashoffset:0;stroke-opacity:1;color-rendering:auto;image-rendering:auto;shape-rendering:auto;text-rendering:auto;enable-background:accumulate;stop-color:#000000"
                           d="m 73.704649,110.01936 h 55.043011 c 0.89126,0 1.60878,1.06468 1.60878,2.38718 v 6.99476 c 0,1.32251 -0.71752,2.38719 -1.60878,2.38719 H 73.704649 c -0.891262,0 -1.608777,-1.06468 -1.608777,-2.38719 v -6.99476 c 0,-1.3225 0.717515,-2.38718 1.608777,-2.38718 z"
                           id="path987"
                           sodipodi:nodetypes="sssssssss" />
                        <path
                           style="fill:none;stroke:#444b54;stroke-width:3.39492;stroke-linecap:round;stroke-linejoin:round;stroke-miterlimit:4;stroke-dasharray:none;stroke-opacity:1"
                           d="m 99.677349,98.542535 c 5.080881,-7.96986 -10.116436,-23.444974 0.05411,-32.668959"
                           id="path997"
                           sodipodi:nodetypes="cc" />
                        <path
                           style="fill:none;fill-opacity:1;stroke:#444b54;stroke-width:3.00606;stroke-linecap:round;stroke-linejoin:round;stroke-miterlimit:4;stroke-dasharray:none;stroke-opacity:1"
                           d="m 114.79023,103.19101 c 9.13194,-9.795725 -8.83895,-13.152322 -1.92685,-25.653089"
                           id="path999"
                           sodipodi:nodetypes="cc" />
                        <path
                           style="fill:none;fill-opacity:1;stroke:#444b54;stroke-width:3.00606;stroke-linecap:round;stroke-linejoin:round;stroke-miterlimit:4;stroke-dasharray:none;stroke-opacity:1"
                           d="m 85.373318,103.19101 c -9.13194,-9.795725 8.838955,-13.152322 1.926854,-25.653089"
                           id="path1001"
                           sodipodi:nodetypes="cc" />
                        <path
                           style="fill:none;fill-opacity:1;stroke:#444b54;stroke-width:3.00606;stroke-linecap:round;stroke-linejoin:round;stroke-miterlimit:4;stroke-dasharray:none;stroke-opacity:1"
                           d="m 85.373318,103.19101 c -9.13194,-9.795725 8.838955,-13.152322 1.926854,-25.653089"
                           id="path1003"
                           sodipodi:nodetypes="cc" />
                        <path
                           style="fill:none;fill-opacity:1;stroke:#444b54;stroke-width:2.03561;stroke-linecap:round;stroke-linejoin:round;stroke-miterlimit:4;stroke-dasharray:none;stroke-opacity:1"
                           d="M 76.904777,103.57596 C 70.720919,96.942616 82.890232,94.669638 78.20958,86.204521"
                           id="path1005"
                           sodipodi:nodetypes="cc" />
                        <path
                           style="fill:none;fill-opacity:1;stroke:#444b54;stroke-width:2.03561;stroke-linecap:round;stroke-linejoin:round;stroke-miterlimit:4;stroke-dasharray:none;stroke-opacity:1"
                           d="m 106.26615,104.4657 c -6.18386,-6.633353 5.98545,-8.906331 1.3048,-17.371448"
                           id="path1007"
                           sodipodi:nodetypes="cc" />
                        <path
                           style="color:#000000;font-style:normal;font-variant:normal;font-weight:normal;font-stretch:normal;font-size:medium;line-height:normal;font-family:sans-serif;font-variant-ligatures:normal;font-variant-position:normal;font-variant-caps:normal;font-variant-numeric:normal;font-variant-alternates:normal;font-variant-east-asian:normal;font-feature-settings:normal;font-variation-settings:normal;text-indent:0;text-align:start;text-decoration:none;text-decoration-line:none;text-decoration-style:solid;text-decoration-color:#000000;letter-spacing:normal;word-spacing:normal;text-transform:none;writing-mode:lr-tb;direction:ltr;text-orientation:mixed;dominant-baseline:auto;baseline-shift:baseline;text-anchor:start;white-space:normal;shape-padding:0;shape-margin:0;inline-size:0;clip-rule:nonzero;display:inline;overflow:visible;visibility:visible;isolation:auto;mix-blend-mode:normal;color-interpolation:sRGB;color-interpolation-filters:linearRGB;solid-color:#000000;solid-opacity:1;vector-effect:none;fill:#ffdbab;fill-opacity:1;fill-rule:nonzero;stroke:#444b54;stroke-width:4.78975;stroke-linecap:round;stroke-linejoin:round;stroke-miterlimit:4;stroke-dasharray:none;stroke-dashoffset:0;stroke-opacity:1;color-rendering:auto;image-rendering:auto;shape-rendering:auto;text-rendering:auto;enable-background:accumulate;stop-color:#000000"
                           d="M 76.852303,210.49039 H 124.2223 c 0.76702,0 1.38451,0.91627 1.38451,2.05441 v 6.01969 c 0,1.13815 -0.61749,2.05442 -1.38451,2.05442 H 76.852303 c -0.767021,0 -1.384513,-0.91627 -1.384513,-2.05442 v -6.01969 c 0,-1.13814 0.617492,-2.05441 1.384513,-2.05441 z"
                           id="path1009"
                           sodipodi:nodetypes="sssssssss" />
                        <path
                           id="path1011"
                           style="fill:#000000;fill-opacity:0;stroke:#444b54;stroke-width:4.96684;stroke-linecap:round;stroke-linejoin:round;stroke-miterlimit:4;stroke-dasharray:none;stroke-opacity:1"
                           d="m 124.39981,220.53146 h 18.68451 z" />
                        <circle
                           style="fill:#444b54;fill-opacity:1;stroke:#444b54;stroke-width:2.53392;stroke-linecap:round;stroke-linejoin:round;stroke-miterlimit:4;stroke-dasharray:none;stroke-opacity:1"
                           id="path1016"
                           cx="151.29031"
                           cy="220.53145"
                           r="1.513046" />
                      </g>
                    </g>
                  </g>
                </g>
              </g>
            </g>
          </g>
        </g>
      </g>
    </g>
  </g>
</svg>
